<svg xmlns="http://www.w3.org/2000/svg">
<symbol id="logo"><path d="M40.658 38V17.07h-8.67l-4.485 17.522-4.485-17.521h-8.67V38h4.783V19.582L23.915 38h7.176l4.783-18.418V38h4.784Z" fill="#89B2FF"/><path fill-rule="evenodd" clip-rule="evenodd" d="M27.5 50C39.926 50 50 39.926 50 27.5S39.926 5 27.5 5 5 15.074 5 27.5 15.074 50 27.5 50Zm0 5C42.688 55 55 42.688 55 27.5S42.688 0 27.5 0 0 12.312 0 27.5 12.312 55 27.5 55Z" fill="#89B2FF"/></symbol>
<symbol id="burger"><path fill="#9E9DAC" d="M0 0h32v2H0zM0 11h32v2H0zM0 22h16v2H0z"/></symbol>
<symbol id="close"><path d="m1 1 28 28M29 1 1 29" stroke="#9E9DAC" stroke-width="2"/></symbol>
<symbol id="information"><g opacity=".2"><circle cx="48" cy="48" r="45.5" stroke="#0C0B31" stroke-width="5"/><path fill="#0C0B31" d="M50.4 81h-4.8V34.6h4.8zM51 25.2h-6v-6h6z"/></g></symbol>
</svg>
